<svg viewBox="0 0 110 110" xmlns="http://www.w3.org/2000/svg">
  <path d="M79.11 67.5a23.93 23.93 0 0 1-2.848 11.38c-4.33-.946-8.634-2.196-12.95-3.455-3.464-1.018-6.938-2.036-10.44-2.902-7.116-1.759-14.33-2.884-21.79-2.054a23.07 23.07 0 0 1-.188-2.964 24.11 24.11 0 0 1 36.43-20.72 24.27 24.27 0 0 1 9.447 10.37 23.91 23.91 0 0 1 2.338 10.36z" fill="#fecd43"/>
  <path fill="#e89836" d="M85.55 69.9a3.986 3.986 0 0 0-2.201-2.511c-1.57-.779-3.471.967-3.962-.446a4.538 4.538 0 0 0-.338-1.053 23.86 23.86 0 0 0-2.28-8.75 12.65 12.65 0 0 1-.688 1.518c-2.598 4.857-7.946 6.696-10.88 11.11a11.34 11.34 0 0 0-1.884 5.652c4.312 1.259 8.616 2.509 12.95 3.455a23.75 23.75 0 0 0 1.718-4.06 7.27 7.27 0 0 0 .869-.13 5.018 5.018 0 0 0 4.67-.149c1.509-.927 2.609-2.868 2.034-4.634z"/>
  <path d="M50.98 66.61c-.563-1.759-1.188-3.688-2.955-4.562-1.5-.741-2.92.134-4.366-.679-.813-.455-1.5-1.607-2.393-2.143a13.01 13.01 0 0 0-6.75-1.57c-.518 0-1.036.026-1.554.07a23.84 23.84 0 0 0-2.071 9.778 23.07 23.07 0 0 0 .187 2.964c7.464-.83 14.68.294 21.79 2.054a678.173 678.173 0 0 1-1.893-5.911z" fill="#fff"/>
  <path fill="#e89836" d="M55 43.39a24.01 24.01 0 0 0-17.16 7.188 22.78 22.78 0 0 0 3.723.759c1.679.187 3.339-.348 4.973-.214 2.536.205 3.589 1.482 5.339 2.696 1.661 1.143 3.955 1.08 5.812.571 3.643-1 7.018-3.938 9.634-7.616a23.97 23.97 0 0 0-12.32-3.384z"/>
  <path fill="none" stroke-linejoin="round" stroke-linecap="round" stroke="#3d344c" stroke-width="4" class="cls-3" d="M103.2 78.38c-9.313 3.08-18.2 2.42-26.96.5-14.93-3.259-29.49-10.16-45.18-8.411-7.759.857-15.8 4.732-24.29 11.32"/>
  <path fill="none" stroke-linejoin="round" stroke-linecap="round" stroke="#3d344c" stroke-width="4" class="cls-3" d="M79.04 65.88a24.11 24.11 0 0 0-48.15 1.616 23.07 23.07 0 0 0 .188 2.964c15.69-1.75 30.25 5.152 45.18 8.411a24.68 24.68 0 0 0 1.723-4.054M55 28.21v7.15m16.6-3.47-3.02 6.48m16.51 3.88-5.47 4.59m13.33 10.49-6.9 1.85M38.4 31.89l3.02 6.48m-16.51 3.88 5.47 4.59M17.05 57.33l6.9 1.85"/>
  <path fill="#e89836" d="M88.89 65.08c1.696-.025 2.912 3.469.625 3.253-2.287-.216-5.561-3.181-.625-3.253z"/>
</svg>