<svg version="1.1" viewBox="0 0 256 256" xmlns="http://www.w3.org/2000/svg">
  <path d="m128 8-3.45 3.306-33 33.21a4.8 4.809 0 1 0 6.75 6.763l24.9-24.8v77.24a4.8 4.809 0 1 0 9.6 0v-77.24l24.9 24.8a4.8 4.809 0 1 0 6.75-6.763l-33-33.21zm-0.45 134.1a4.8 4.809 0 0 0-0.6 0.1503 4.8 4.809 0 0 0-3.75 4.809v28.85a4.8 4.809 0 1 0 9.6 0v-28.85a4.8 4.809 0 0 0-5.25-4.959zm-67.8 28.4a4.8 4.809 0 0 0-2.85 8.266l20.25 20.29a4.8 4.809 0 1 0 6.75-6.763l-20.25-20.29a4.8 4.809 0 0 0-3.45-1.503 4.8 4.809 0 0 0-0.45 0zm135.4 0a4.8 4.809 0 0 0-2.85 1.503l-20.25 20.29a4.8 4.809 0 1 0 6.75 6.763l20.25-20.29a4.8 4.809 0 0 0-3.45-8.266 4.8 4.809 0 0 0-0.45 0zm-67.2 24.65c-24.85 0-45.29 19.01-47.7 43.28h-67.5c-2.65 0-4.8 2.15-4.8 4.809 0 2.659 2.15 4.809 4.8 4.809h230.4c2.654 0 4.8-2.15 4.8-4.809 0-2.659-2.146-4.809-4.8-4.809h-67.5c-2.419-24.27-22.86-43.28-47.7-43.28z" style="stroke-width:4.804"/>
</svg>
