<svg version="1.1" viewBox="0 0 256 256" xmlns="http://www.w3.org/2000/svg">
  <path d="m128 8c-2.649 0-4.799 2.15-4.799 4.799v77.24l-24.9-24.9c-1.877-1.877-4.872-1.877-6.749 0-1.877 1.877-1.877 4.872 0 6.749l36.44 36.44 36.44-36.44c1.877-1.877 1.877-4.872 0-6.749-1.877-1.877-4.872-1.877-6.749 0l-24.9 24.9v-77.24c0-2.649-2.15-4.799-4.799-4.799zm0 134.4c-2.649 0-4.799 2.146-4.799 4.799v28.8c0 2.654 2.15 4.799 4.799 4.799s4.799-2.146 4.799-4.799v-28.8c0-2.654-2.15-4.799-4.799-4.799zm-67.64 28.35c-1.227 0-2.511 0.4115-3.449 1.35-1.877 1.877-1.877 4.872 0 6.749l20.25 20.25c0.9359 0.9358 2.071 1.35 3.299 1.35 1.229 0 2.514-0.4139 3.449-1.35 1.877-1.877 1.877-4.872 0-6.749l-20.25-20.25c-0.9383-0.9383-2.072-1.35-3.299-1.35zm135.3 0c-1.227 0-2.361 0.4115-3.299 1.35l-20.25 20.25c-1.877 1.877-1.877 4.872 0 6.749 0.9411 0.9358 2.225 1.35 3.449 1.35 1.229 0 2.364-0.4139 3.299-1.35l20.25-20.25c1.877-1.877 1.877-4.872 0-6.749-0.9383-0.9383-2.222-1.35-3.449-1.35zm-67.64 24.45c-24.85 0-45.27 18.97-47.69 43.19h-67.49c-2.649 0-4.799 2.146-4.799 4.799s2.15 4.799 4.799 4.799h230.4c2.654 0 4.799-2.146 4.799-4.799s-2.146-4.799-4.799-4.799h-67.49c-2.418-24.22-22.85-43.19-47.69-43.19z" style="stroke-width:4.799"/>
</svg>
